<svg xmlns="http://www.w3.org/2000/svg" viewBox="0 0 1200 780" font-family="'Segoe UI',system-ui,sans-serif">
  <!-- background -->
  <rect width="1200" height="780" fill="#F0F4F8"/>

  <!-- HEADER -->
  <rect width="1200" height="62" fill="#0F2B4E"/>
  <rect y="59" width="1200" height="3" fill="#1A56A8"/>
  <!-- brand separator -->
  <rect x="220" y="12" width="1" height="38" fill="rgba(255,255,255,0.15)"/>
  <!-- eyebrow -->
  <text x="18" y="28" fill="rgba(255,255,255,0.55)" font-size="9" letter-spacing="2" font-weight="600">CREDIT MANAGER TOOL</text>
  <!-- title -->
  <text x="18" y="48" fill="white" font-size="17" font-weight="700">Kisan Credit Card Calculator</text>
  <!-- subtitle -->
  <text x="236" y="30" fill="rgba(255,255,255,0.6)" font-size="11">Composite Maximum Permissible Limit (CMPL) Estimator</text>
  <!-- badge -->
  <rect x="236" y="37" width="148" height="16" rx="8" fill="rgba(255,255,255,0.12)" stroke="rgba(255,255,255,0.2)" stroke-width="1"/>
  <text x="310" y="49" fill="rgba(255,255,255,0.85)" font-size="9" letter-spacing="1.5" text-anchor="middle">RBI KCC DIRECTIONS, 2026</text>
  <!-- header buttons -->
  <rect x="990" y="17" width="90" height="27" rx="5" fill="white" stroke="#CBD5E1" stroke-width="1"/>
  <text x="1035" y="35" fill="#0F172A" font-size="11" font-weight="600" text-anchor="middle">⊕ Load Sample</text>
  <rect x="1090" y="17" width="60" height="27" rx="5" fill="white" stroke="#CBD5E1" stroke-width="1"/>
  <text x="1120" y="35" fill="#0F172A" font-size="11" font-weight="600" text-anchor="middle">↺ Reset</text>
  <rect x="1157" y="17" width="30" height="27" rx="5" fill="#1A56A8"/>
  <text x="1172" y="35" fill="white" font-size="11" font-weight="600" text-anchor="middle">PDF</text>

  <!-- LEFT COLUMN -->

  <!-- FLEXI CARD -->
  <rect x="18" y="80" width="580" height="46" rx="7" fill="white" stroke="#CBD5E1" stroke-width="1.5"/>
  <!-- toggle off -->
  <rect x="32" y="95" width="34" height="18" rx="9" fill="#CBD5E1"/>
  <circle cx="41" cy="104" r="7" fill="white"/>
  <text x="75" y="101" fill="#0F172A" font-size="12" font-weight="700">Flexi KCC — Marginal Farmer</text>
  <text x="75" y="115" fill="#475569" font-size="10.5">Simplified manual limit for landholding ≤ 1 hectare; bypasses Scale-of-Finance calculation.</text>
  <text x="480" y="100" fill="#475569" font-size="10.5">Landholding (ha)</text>
  <rect x="548" y="90" width="40" height="22" rx="4" fill="white" stroke="#CBD5E1" stroke-width="1"/>

  <!-- COMPONENT A CARD -->
  <rect x="18" y="135" width="580" height="210" rx="7" fill="white" stroke="#E2E8F0" stroke-width="1"/>
  <!-- A header -->
  <rect x="18" y="135" width="580" height="42" rx="7" fill="white"/>
  <rect x="18" y="163" width="580" height="1" fill="#E2E8F0"/>
  <!-- badge A -->
  <rect x="30" y="147" width="26" height="26" rx="5" fill="#DBEAFE"/>
  <text x="43" y="165" fill="#1D4ED8" font-size="13" font-weight="800" text-anchor="middle">A</text>
  <text x="65" y="159" fill="#0F172A" font-size="13" font-weight="700">Component A — Working Capital for Crop Cultivation</text>
  <text x="65" y="172" fill="#94A3B8" font-size="10.5">Scale of Finance per acre · 10% post-harvest + 20% maintenance add-ons · 6-year MPL escalation</text>
  <text x="530" y="163" fill="#1A56A8" font-size="11" font-weight="700">₹1,16,279 (Y6 MPL)</text>
  <text x="590" y="163" fill="#94A3B8" font-size="10">▲</text>
  <!-- table header -->
  <rect x="28" y="172" width="560" height="22" rx="0" fill="#F8FAFC"/>
  <text x="36" y="187" fill="#475569" font-size="10" font-weight="600" letter-spacing="0.8">CROP NAME</text>
  <text x="170" y="187" fill="#475569" font-size="10" font-weight="600" letter-spacing="0.8">SEASON</text>
  <text x="250" y="187" fill="#475569" font-size="10" font-weight="600" letter-spacing="0.8">AREA (ACRES)</text>
  <text x="360" y="187" fill="#475569" font-size="10" font-weight="600" letter-spacing="0.8">SOF (₹/ACRE)</text>
  <text x="470" y="187" fill="#475569" font-size="10" font-weight="600" letter-spacing="0.8" text-anchor="end">CROP LOAN (₹)</text>
  <!-- row 1 paddy -->
  <rect x="28" y="193" width="560" height="1" fill="#E2E8F0"/>
  <rect x="30" y="195" width="130" height="22" rx="4" fill="white" stroke="#CBD5E1" stroke-width="1"/>
  <text x="38" y="210" fill="#0F172A" font-size="12">Paddy</text>
  <rect x="168" y="195" width="74" height="22" rx="4" fill="white" stroke="#CBD5E1" stroke-width="1"/>
  <text x="180" y="210" fill="#0F172A" font-size="12">Kharif</text>
  <rect x="248" y="195" width="104" height="22" rx="4" fill="white" stroke="#CBD5E1" stroke-width="1"/>
  <text x="342" y="210" fill="#0F172A" font-size="12" text-anchor="end">2.00</text>
  <rect x="358" y="195" width="104" height="22" rx="4" fill="white" stroke="#CBD5E1" stroke-width="1"/>
  <text x="452" y="210" fill="#0F172A" font-size="12" text-anchor="end">15,000</text>
  <text x="560" y="210" fill="#0F2B4E" font-size="12" font-weight="600" text-anchor="end">₹30,000</text>
  <!-- row 2 wheat -->
  <rect x="28" y="217" width="560" height="1" fill="#E2E8F0"/>
  <rect x="30" y="220" width="130" height="22" rx="4" fill="white" stroke="#CBD5E1" stroke-width="1"/>
  <text x="38" y="235" fill="#0F172A" font-size="12">Wheat</text>
  <rect x="168" y="220" width="74" height="22" rx="4" fill="white" stroke="#CBD5E1" stroke-width="1"/>
  <text x="180" y="235" fill="#0F172A" font-size="12">Rabi</text>
  <rect x="248" y="220" width="104" height="22" rx="4" fill="white" stroke="#CBD5E1" stroke-width="1"/>
  <text x="342" y="235" fill="#0F172A" font-size="12" text-anchor="end">2.00</text>
  <rect x="358" y="220" width="104" height="22" rx="4" fill="white" stroke="#CBD5E1" stroke-width="1"/>
  <text x="452" y="235" fill="#0F172A" font-size="12" text-anchor="end">12,000</text>
  <text x="560" y="235" fill="#0F2B4E" font-size="12" font-weight="600" text-anchor="end">₹24,000</text>
  <!-- add crop btn -->
  <rect x="30" y="247" width="80" height="22" rx="4" fill="#EEF4FB" stroke="rgba(26,86,168,0.2)" stroke-width="1"/>
  <text x="70" y="262" fill="#1A56A8" font-size="11" font-weight="600" text-anchor="middle">+ Add Crop</text>
  <!-- insurance A row -->
  <rect x="28" y="275" width="560" height="36" rx="5" fill="#F8FAFC" stroke="#E2E8F0" stroke-width="1"/>
  <text x="38" y="291" fill="#475569" font-size="11.5" font-weight="600">Insurance Premium — Component A</text>
  <text x="38" y="304" fill="#94A3B8" font-size="10.5">Actual premium for crop insurance policies (PMFBY / private)</text>
  <rect x="432" y="280" width="145" height="22" rx="4" fill="white" stroke="#CBD5E1" stroke-width="1"/>
  <text x="444" y="295" fill="#94A3B8" font-size="12">₹</text>
  <text x="572" y="295" fill="#0F172A" font-size="12" text-anchor="end">2,000</text>
  <!-- info note -->
  <rect x="28" y="316" width="560" height="24" rx="5" fill="#EEF4FB" stroke="rgba(26,86,168,0.15)" stroke-width="1"/>
  <text x="38" y="332" fill="#1A56A8" font-size="11">ℹ  No-double-counting (Rule 1): Component B is also active. The 10% consumption add-on is applied here only — suppressed in B.</text>

  <!-- COMPONENT B CARD -->
  <rect x="18" y="355" width="580" height="155" rx="7" fill="white" stroke="#E2E8F0" stroke-width="1"/>
  <rect x="18" y="355" width="580" height="42" rx="7" fill="white"/>
  <rect x="18" y="383" width="580" height="1" fill="#E2E8F0"/>
  <rect x="30" y="367" width="26" height="26" rx="5" fill="#DCFCE7"/>
  <text x="43" y="385" fill="#15803D" font-size="13" font-weight="800" text-anchor="middle">B</text>
  <text x="65" y="379" fill="#0F172A" font-size="13" font-weight="700">Component B — Working Capital for Allied Activities</text>
  <text x="65" y="392" fill="#94A3B8" font-size="10.5">Dairy, fisheries, poultry, beekeeping, etc. · same add-on structure as Component A</text>
  <text x="530" y="383" fill="#1A56A8" font-size="11" font-weight="700">₹1,37,699 (Y6 MPL)</text>
  <!-- B table -->
  <rect x="28" y="392" width="560" height="22" fill="#F8FAFC"/>
  <text x="36" y="407" fill="#475569" font-size="10" font-weight="600" letter-spacing="0.8">ACTIVITY</text>
  <text x="230" y="407" fill="#475569" font-size="10" font-weight="600" letter-spacing="0.8">NO. OF UNITS</text>
  <text x="340" y="407" fill="#475569" font-size="10" font-weight="600" letter-spacing="0.8">SOF (₹/UNIT)</text>
  <text x="570" y="407" fill="#475569" font-size="10" font-weight="600" letter-spacing="0.8" text-anchor="end">BASE AMOUNT (₹)</text>
  <rect x="28" y="414" width="560" height="1" fill="#E2E8F0"/>
  <rect x="30" y="416" width="190" height="22" rx="4" fill="white" stroke="#CBD5E1" stroke-width="1"/>
  <text x="38" y="431" fill="#0F172A" font-size="11.5">Cross-breed Cows (Dairy)</text>
  <rect x="228" y="416" width="100" height="22" rx="4" fill="white" stroke="#CBD5E1" stroke-width="1"/>
  <text x="318" y="431" fill="#0F172A" font-size="12" text-anchor="end">2</text>
  <rect x="335" y="416" width="100" height="22" rx="4" fill="white" stroke="#CBD5E1" stroke-width="1"/>
  <text x="425" y="431" fill="#0F172A" font-size="12" text-anchor="end">35,000</text>
  <text x="570" y="431" fill="#0F2B4E" font-size="12" font-weight="600" text-anchor="end">₹70,000</text>
  <!-- ins B -->
  <rect x="28" y="444" width="560" height="32" rx="5" fill="#F8FAFC" stroke="#E2E8F0" stroke-width="1"/>
  <text x="38" y="462" fill="#475569" font-size="11.5" font-weight="600">Insurance Premium — Component B</text>
  <rect x="432" y="449" width="145" height="22" rx="4" fill="white" stroke="#CBD5E1" stroke-width="1"/>
  <text x="444" y="464" fill="#94A3B8" font-size="12">₹</text>
  <text x="572" y="464" fill="#0F172A" font-size="12" text-anchor="end">1,500</text>
  <!-- suppressed note -->
  <rect x="28" y="482" width="560" height="22" rx="5" fill="#EEF4FB" stroke="rgba(26,86,168,0.15)" stroke-width="1"/>
  <text x="38" y="497" fill="#1A56A8" font-size="11">ℹ  No-double-counting (Rule 1): The 10% consumption add-on is suppressed here — counted once in Component A.</text>

  <!-- COMPONENT C CARD -->
  <rect x="18" y="520" width="580" height="90" rx="7" fill="white" stroke="#E2E8F0" stroke-width="1"/>
  <rect x="18" y="520" width="580" height="42" rx="7" fill="white"/>
  <rect x="18" y="548" width="580" height="1" fill="#E2E8F0"/>
  <rect x="30" y="532" width="26" height="26" rx="5" fill="#FFEDD5"/>
  <text x="43" y="550" fill="#C2410C" font-size="13" font-weight="800" text-anchor="middle">C</text>
  <text x="65" y="544" fill="#0F172A" font-size="13" font-weight="700">Component C — Investment Credit (Term Loan)</text>
  <text x="65" y="557" fill="#94A3B8" font-size="10.5">Land development, irrigation, equipment, allied infrastructure · no escalation applied</text>
  <text x="560" y="548" fill="#1A56A8" font-size="11" font-weight="700" text-anchor="end">₹2,00,000</text>
  <!-- C rows -->
  <text x="36" y="572" fill="#475569" font-size="12">Pump Set (Year 1)</text>
  <text x="590" y="572" fill="#0F2B4E" font-size="12" font-weight="600" text-anchor="end">₹50,000</text>
  <text x="36" y="590" fill="#475569" font-size="12">Dairy Shed &amp; Equipment (Year 1)</text>
  <text x="590" y="590" fill="#0F2B4E" font-size="12" font-weight="600" text-anchor="end">₹1,50,000</text>
  <rect x="28" y="594" width="560" height="1" fill="#CBD5E1"/>
  <text x="36" y="608" fill="#0F172A" font-size="12" font-weight="700">Term Loan Total</text>
  <text x="590" y="608" fill="#0F2B4E" font-size="13" font-weight="700" text-anchor="end">₹2,00,000</text>

  <!-- RIGHT COLUMN — RESULTS -->

  <!-- Component A Result -->
  <rect x="615" y="80" width="568" height="165" rx="7" fill="white" stroke="#E2E8F0" stroke-width="1"/>
  <rect x="615" y="80" width="568" height="34" rx="7" fill="#1D4ED8"/>
  <text x="627" y="102" fill="white" font-size="10.5" font-weight="700" letter-spacing="1">COMPONENT A — CROP CULTIVATION</text>
  <!-- A calc rows -->
  <text x="627" y="128" fill="#475569" font-size="12">Crop loan base — Sub-total A</text>
  <text x="1175" y="128" fill="#475569" font-size="12" font-weight="600" text-anchor="end">₹54,000</text>
  <text x="627" y="145" fill="#475569" font-size="12">+ 10% post-harvest / consumption</text>
  <text x="1175" y="145" fill="#475569" font-size="12" font-weight="600" text-anchor="end">₹5,400</text>
  <text x="627" y="162" fill="#475569" font-size="12">+ 20% maintenance / tech / GAP</text>
  <text x="1175" y="162" fill="#475569" font-size="12" font-weight="600" text-anchor="end">₹10,800</text>
  <text x="627" y="179" fill="#475569" font-size="12">+ Insurance premium</text>
  <text x="1175" y="179" fill="#475569" font-size="12" font-weight="600" text-anchor="end">₹2,000</text>
  <rect x="627" y="183" width="546" height="1" fill="#E2E8F0"/>
  <text x="627" y="198" fill="#0F172A" font-size="13" font-weight="700">Year 1 Limit</text>
  <text x="1175" y="198" fill="#0F2B4E" font-size="13" font-weight="700" text-anchor="end">₹72,200</text>
  <!-- year table A -->
  <rect x="615" y="252" width="568" height="135" rx="7" fill="white" stroke="#E2E8F0" stroke-width="1"/>
  <rect x="615" y="252" width="568" height="24" rx="0" fill="#F8FAFC"/>
  <text x="627" y="268" fill="#475569" font-size="10" font-weight="700" letter-spacing="0.8">YEAR-WISE MPL</text>
  <text x="627" y="280" fill="#94A3B8" font-size="10" font-weight="400">10% compound escalation</text>
  <rect x="615" y="276" width="568" height="22" fill="#F8FAFC"/>
  <text x="627" y="291" fill="#475569" font-size="10" font-weight="600" letter-spacing="0.8">YEAR</text>
  <text x="1175" y="291" fill="#475569" font-size="10" font-weight="600" letter-spacing="0.8" text-anchor="end">DRAWING LIMIT (₹)</text>
  <rect x="615" y="298" width="568" height="1" fill="#E2E8F0"/>
  <text x="627" y="313" fill="#475569" font-weight="500" font-size="11.5">Year 1</text><text x="1175" y="313" font-size="11.5" text-anchor="end" fill="#0F172A">₹72,200</text>
  <rect x="615" y="315" width="568" height="1" fill="#E2E8F0"/>
  <text x="627" y="330" fill="#475569" font-weight="500" font-size="11.5">Year 2</text><text x="1175" y="330" font-size="11.5" text-anchor="end" fill="#0F172A">₹79,420</text>
  <rect x="615" y="332" width="568" height="1" fill="#E2E8F0"/>
  <text x="627" y="347" fill="#475569" font-weight="500" font-size="11.5">Year 3</text><text x="1175" y="347" font-size="11.5" text-anchor="end" fill="#0F172A">₹87,362</text>
  <rect x="615" y="349" width="568" height="1" fill="#E2E8F0"/>
  <text x="627" y="364" fill="#475569" font-weight="500" font-size="11.5">Year 4</text><text x="1175" y="364" font-size="11.5" text-anchor="end" fill="#0F172A">₹96,098</text>
  <rect x="615" y="366" width="568" height="1" fill="#E2E8F0"/>
  <text x="627" y="381" fill="#475569" font-weight="500" font-size="11.5">Year 5</text><text x="1175" y="381" font-size="11.5" text-anchor="end" fill="#0F172A">₹1,05,708</text>
  <rect x="615" y="383" width="568" height="1" fill="#E2E8F0"/>
  <!-- year 6 highlighted -->
  <rect x="615" y="383" width="568" height="22" fill="#EEF4FB"/>
  <text x="627" y="398" fill="#0F2B4E" font-weight="700" font-size="11.5">Year 6 ★</text><text x="1175" y="398" font-size="11.5" font-weight="700" text-anchor="end" fill="#0F2B4E">₹1,16,279</text>

  <!-- CMPL BOX -->
  <rect x="615" y="395" width="568" height="175" rx="7" fill="white" stroke="#E2E8F0" stroke-width="1"/>
  <rect x="615" y="395" width="568" height="34" rx="7" fill="#0F2B4E"/>
  <text x="627" y="417" fill="white" font-size="10.5" font-weight="700" letter-spacing="1">COMPOSITE KCC LIMIT (CMPL)</text>
  <!-- breakdown rows -->
  <text x="627" y="444" fill="#475569" font-size="12">A — Year 6 MPL</text>
  <text x="1175" y="444" fill="#0F172A" font-size="12" font-weight="600" text-anchor="end">₹1,16,279</text>
  <text x="627" y="461" fill="#475569" font-size="12">B — Year 6 MPL</text>
  <text x="1175" y="461" fill="#0F172A" font-size="12" font-weight="600" text-anchor="end">₹1,37,699</text>
  <text x="627" y="478" fill="#475569" font-size="12">C — Term Loan Total</text>
  <text x="1175" y="478" fill="#0F172A" font-size="12" font-weight="600" text-anchor="end">₹2,00,000</text>
  <rect x="627" y="482" width="546" height="1" fill="#CBD5E1"/>
  <text x="627" y="497" fill="#0F172A" font-size="12" font-weight="700">Raw Total</text>
  <text x="1175" y="497" fill="#0F2B4E" font-size="12" font-weight="700" text-anchor="end">₹4,53,978</text>
  <text x="627" y="510" fill="#94A3B8" font-size="10.5">Rounded to nearest ₹1,000 per RBI directions</text>
  <!-- CMPL dark box -->
  <rect x="627" y="518" width="544" height="42" rx="7" fill="#0F2B4E"/>
  <text x="899" y="533" fill="rgba(255,255,255,0.6)" font-size="9.5" letter-spacing="2" text-anchor="middle" font-weight="600">COMPOSITE MAXIMUM PERMISSIBLE LIMIT</text>
  <text x="899" y="554" fill="#7DD3FC" font-size="26" font-weight="800" text-anchor="middle" letter-spacing="-0.5">₹4,54,000</text>
  <!-- collateral badge -->
  <rect x="627" y="566" width="200" height="20" rx="10" fill="#FEE2E2" stroke="rgba(153,27,27,0.2)" stroke-width="1"/>
  <text x="727" y="580" fill="#991B1B" font-size="10.5" font-weight="600" text-anchor="middle">⚡ Limit &gt; ₹3 lakh — collateral required</text>

  <!-- bottom note -->
  <text x="600" y="750" fill="#94A3B8" font-size="10" text-anchor="middle">KCC Composite Limit Calculator — RBI KCC Directions, 2026 · All figures in Indian Rupees (₹)</text>
</svg>
